# xmcd
# Copyright (C) 1995-1998 Ti Kan
#
# Track frame offsets:
#       150
#       6761
#       20135
#       37904
#       51332
#       75369
#       83237
#       94584
#       110117
#       122610
#       132023
#       152351
#
# Disc length: 2169 seconds
#
# Revision: 0
# Processed by: cddbd v1.5.2PL0 Copyright (c) Steve Scherf et al.
# Submitted via: CD-Import v1.0
#
DISCID=8608770c
DTITLE=Pierre Omer - See What's Hidden
DYEAR=1900
DGENRE=
TTITLE0=No Lucky Today
TTITLE1=The Girl In The Lake
TTITLE2=Who's That Guy
TTITLE3=Show Me Some Love
TTITLE4=Sea Shells
TTITLE5=He Bends Metal Bars
TTITLE6=Woland
TTITLE7=Charly
TTITLE8=I Saw Ghosts
TTITLE9=See What's Hidden
TTITLE10=Black Angel
TTITLE11=Put Your Arms Around Me Baby
EXTD=
EXTT0=
EXTT1=
EXTT2=
EXTT3=
EXTT4=
EXTT5=
EXTT6=
EXTT7=
EXTT8=
EXTT9=
EXTT10=
EXTT11=
PLAYORDER=
